<svg xmlns="http://www.w3.org/2000/svg" width="14" height="14" viewBox="0 0 14 14">
  <path id="Path_5" data-name="Path 5" d="M1412.5,16.781V29.219a.778.778,0,0,1-.219.547.735.735,0,0,1-.562.234h-3.563V24.563h1.813l.281-2.094h-2.094V21.125a1.162,1.162,0,0,1,.188-.75,1.084,1.084,0,0,1,.844-.281h1.125V18.188q-.657-.063-1.625-.063a2.54,2.54,0,0,0-2.719,2.781v1.563h-1.813v2.094h1.813V30h-6.688a.733.733,0,0,1-.562-.234.778.778,0,0,1-.219-.547V16.781a.75.75,0,0,1,.781-.781h12.438a.778.778,0,0,1,.547.219A.735.735,0,0,1,1412.5,16.781Z" transform="translate(-1398.5 -16)" fill="#4b5981"/>
</svg>
