<svg xmlns="http://www.w3.org/2000/svg" width="14" height="14" viewBox="0 0 14 14">
  <path id="Path_7" data-name="Path 7" d="M1511.7,16.3a.96.96,0,0,1,.3.7V29a1.014,1.014,0,0,1-1,1h-12a1.014,1.014,0,0,1-1-1V17a1.014,1.014,0,0,1,1-1h12A.96.96,0,0,1,1511.7,16.3Zm-9.656,3.75a1.172,1.172,0,0,0,0-1.688,1.175,1.175,0,0,0-.859-.359,1.123,1.123,0,0,0-.844.359,1.207,1.207,0,0,0,0,1.688,1.12,1.12,0,0,0,.844.359A1.171,1.171,0,0,0,1502.047,20.047Zm.2,7.953V21.313h-2.094V28h2.094Zm7.75-3.656a4.548,4.548,0,0,0-.437-2.281,2.244,2.244,0,0,0-2.032-.907,2.409,2.409,0,0,0-1.281.344,1.746,1.746,0,0,0-.687.719h-.032v-.906h-2V28h2.063V24.688a2.564,2.564,0,0,1,.219-1.188,1.1,1.1,0,0,1,1.031-.531.9.9,0,0,1,.937.594,3.307,3.307,0,0,1,.157,1.187V28H1510Z" transform="translate(-1498 -16)" fill="#4b5981"/>
</svg>
