<svg xmlns="http://www.w3.org/2000/svg" xmlns:xlink="http://www.w3.org/1999/xlink" width="89.114" height="89.153" viewBox="0 0 89.114 89.153">
  <defs>
    <linearGradient id="linear-gradient" x1="0.5" x2="0.5" y2="1" gradientUnits="objectBoundingBox">
      <stop offset="0" stop-color="#00d3a8"/>
      <stop offset="1" stop-color="#01c0cf"/>
    </linearGradient>
  </defs>
  <g id="group_2" data-name="group 2" transform="translate(-605.249 -471.513)">
    <path id="Path_1519" data-name="Path 1519" d="M620.948,472.3a7.075,7.075,0,1,0,6.328,7.031,6.707,6.707,0,0,0-6.328-7.031Z" transform="translate(2.84 0.269)" fill="#fff"/>
    <path id="Path_1520" data-name="Path 1520" d="M623.783,485.3a7.7,7.7,0,0,0,.224-1.759,6.709,6.709,0,0,0-6.328-7.033,5.819,5.819,0,0,0-3.291,1.052,6.476,6.476,0,0,1,6.1-5.27,6.709,6.709,0,0,1,6.328,7.031A7.2,7.2,0,0,1,623.783,485.3Z" transform="translate(3.295 0.28)" fill="#a3d4ff"/>
    <path id="Path_1521" data-name="Path 1521" d="M621.213,487.65a8.085,8.085,0,1,1,7.347-8.051,7.732,7.732,0,0,1-7.347,8.051Zm0-14.062a6.057,6.057,0,1,0,5.306,6.011A5.7,5.7,0,0,0,621.213,473.588Z" transform="translate(2.574 0)" fill="url(#linear-gradient)"/>
    <path id="Path_1522" data-name="Path 1522" d="M633.341,535.337l-3.469-3.184h-7.755l-.136,5.626H632.39a1.407,1.407,0,0,0,.951-2.442Z" transform="translate(6.032 21.861)" fill="#fff"/>
    <path id="Path_1523" data-name="Path 1523" d="M632.741,535.337l-3.469-3.184h-5.626l4.8,4.405a.7.7,0,0,1-.475,1.224h3.819a1.407,1.407,0,0,0,.951-2.446Z" transform="translate(6.632 21.861)" fill="#a3d4ff"/>
    <path id="Path_1524" data-name="Path 1524" d="M632.661,539.069H622.252a1.018,1.018,0,0,1-1.02-1.044l.136-5.626a1.022,1.022,0,0,1,1.02-1h7.755a1.025,1.025,0,0,1,.691.272l3.468,3.182a2.427,2.427,0,0,1-1.641,4.218Zm-9.364-2.041h9.364a.386.386,0,0,0,.261-.669h0l-3.177-2.916h-6.363Z" transform="translate(5.761 21.591)" fill="url(#linear-gradient)"/>
    <path id="Path_1525" data-name="Path 1525" d="M608.5,537.779h10.409l-.136-5.626h-7.755l-3.469,3.184a1.407,1.407,0,0,0,.951,2.442Z" transform="translate(0.665 21.861)" fill="#fff"/>
    <path id="Path_1526" data-name="Path 1526" d="M616.8,532.153h-4.218l.136,5.626h4.218Z" transform="translate(2.643 21.861)" fill="#a3d4ff"/>
    <path id="Path_1527" data-name="Path 1527" d="M619.181,539.071H608.771a2.427,2.427,0,0,1-1.641-4.218l3.469-3.182a1.019,1.019,0,0,1,.69-.272h7.755a1.022,1.022,0,0,1,1.021,1l.136,5.626a1.021,1.021,0,0,1-1.02,1.044Zm-7.495-5.63-3.175,2.916a.362.362,0,0,0-.1.423.366.366,0,0,0,.359.246h9.366l-.086-3.585Z" transform="translate(0.394 21.589)" fill="url(#linear-gradient)"/>
    <path id="Path_1528" data-name="Path 1528" d="M634.2,541.174l-2.313-34.042h-19.6l-2.313,34.042h7.755l4.354-27.584,4.354,27.586h7.755Z" transform="translate(1.702 12.84)" fill="#a3d4ff"/>
    <path id="Path_1529" data-name="Path 1529" d="M629.663,540.035l-1.9-28.5a1.407,1.407,0,0,0-1.4-1.3H611.97l-2,29.824h7.755l4.354-27.586,4.354,27.586Z" transform="translate(1.703 13.958)" fill="#fff"/>
    <path id="Path_1530" data-name="Path 1530" d="M634.462,542.462h-7.755a1.018,1.018,0,0,1-1.007-.86l-3.345-21.2-3.344,21.2a1.02,1.02,0,0,1-1.008.86h-7.755a1.02,1.02,0,0,1-1.018-1.088l2.313-34.044a1.018,1.018,0,0,1,1.018-.952h19.6a1.017,1.017,0,0,1,1.018.952l2.313,34.044a1.02,1.02,0,0,1-1.018,1.088Zm-6.885-2.041h5.794l-2.17-32H613.5l-2.17,32h5.794l4.217-26.724a1.02,1.02,0,0,1,2.016,0Z" transform="translate(1.435 12.568)" fill="url(#linear-gradient)"/>
    <path id="Path_1531" data-name="Path 1531" d="M653.729,475.993a3.857,3.857,0,0,0-5.452,0l-12.619,12.62a7.978,7.978,0,0,1-5.641,2.335H613.707a7.71,7.71,0,0,0-7.707,7.71v21.931a3.854,3.854,0,0,0,7.709,0l.012-1.826h19.606V504.69A6.65,6.65,0,0,1,635.263,500l18.468-18.557A3.853,3.853,0,0,0,653.729,475.993Z" transform="translate(0.271 1.208)" fill="#fff"/>
    <path id="Path_1532" data-name="Path 1532" d="M647.606,475.99a3.838,3.838,0,0,0-3.842-.944,3.846,3.846,0,0,1-.377,4.99L624.92,498.593a6.644,6.644,0,0,0-1.936,4.688V518.76H627.2V504.687A6.65,6.65,0,0,1,629.137,500L647.6,481.441A3.853,3.853,0,0,0,647.606,475.99Z" transform="translate(6.394 1.212)" fill="#a3d4ff"/>
    <path id="Path_1533" data-name="Path 1533" d="M610.124,525.735a4.88,4.88,0,0,1-4.875-4.875V498.929a8.74,8.74,0,0,1,8.729-8.73h16.314a6.913,6.913,0,0,0,4.92-2.041l12.616-12.619a4.844,4.844,0,0,1,3.448-1.428h0a4.873,4.873,0,0,1,3.445,8.321l-18.465,18.561a5.592,5.592,0,0,0-1.633,3.969v14.073a1.02,1.02,0,0,1-1.02,1.02H615v.807A4.88,4.88,0,0,1,610.124,525.735Zm3.854-33.5a6.7,6.7,0,0,0-6.688,6.69v21.931a2.834,2.834,0,1,0,5.668,0l.012-16.286a1.02,1.02,0,0,1,1.02-1.019h0a1.019,1.019,0,0,1,1.019,1.02v13.439h17.565V504.962a7.628,7.628,0,0,1,2.233-5.409L653.275,481a2.834,2.834,0,0,0-2-4.839h0a2.813,2.813,0,0,0-2,.831l-12.616,12.617a8.938,8.938,0,0,1-6.363,2.634Z" transform="translate(0 0.937)" fill="url(#linear-gradient)"/>
    <path id="Path_1534" data-name="Path 1534" d="M619.145,515.792a1.02,1.02,0,0,1-1.02-1.02V486.956a1.02,1.02,0,1,1,2.041,0v27.816A1.02,1.02,0,0,1,619.145,515.792Z" transform="translate(4.642 5.2)" fill="url(#linear-gradient)"/>
    <path id="Path_1535" data-name="Path 1535" d="M687.221,537.579H623.25a1.02,1.02,0,1,1,0-2.041h63.971a1.02,1.02,0,1,1,0,2.041Z" transform="translate(6.122 23.081)" fill="url(#linear-gradient)"/>
    <circle id="Ellipse_42" data-name="Ellipse 42" cx="14.966" cy="14.966" r="14.966" transform="translate(653.888 483.453)" fill="#fff"/>
    <path id="Path_1536" data-name="Path 1536" d="M656.671,480.4a14.915,14.915,0,0,1-12.1,25.837,14.953,14.953,0,1,0,12.1-25.836Z" transform="translate(14.177 3.204)" fill="#a3d4ff"/>
    <path id="Path_1537" data-name="Path 1537" d="M656.236,511.511a15.986,15.986,0,1,1,15.986-15.986A15.986,15.986,0,0,1,656.236,511.511Zm0-29.931a13.945,13.945,0,1,0,13.945,13.945A13.945,13.945,0,0,0,656.236,481.58Z" transform="translate(12.618 2.894)" fill="url(#linear-gradient)"/>
    <path id="Path_1538" data-name="Path 1538" d="M653.306,501.49a4.875,4.875,0,0,1-4.562-2.89,1.021,1.021,0,0,1,1.882-.792,2.879,2.879,0,0,0,2.68,1.641,2.7,2.7,0,0,0,2.857-2.5c0-1.66-.966-2.5-2.869-2.5-3.609,0-4.9-2.346-4.9-4.541a4.734,4.734,0,0,1,4.9-4.541,4.873,4.873,0,0,1,4.562,2.888,1.021,1.021,0,1,1-1.881.792,2.877,2.877,0,0,0-2.68-1.633,2.7,2.7,0,0,0-2.857,2.5c0,1.66.962,2.5,2.857,2.5,3.62,0,4.91,2.347,4.91,4.541a4.736,4.736,0,0,1-4.9,4.536Z" transform="translate(15.555 4.992)" fill="url(#linear-gradient)"/>
    <path id="Path_1539" data-name="Path 1539" d="M652.265,487.917a1.02,1.02,0,0,1-1.02-1.02V484.96a1.02,1.02,0,1,1,2.041,0V486.9a1.02,1.02,0,0,1-1.02,1.02Z" transform="translate(16.582 4.48)" fill="url(#linear-gradient)"/>
    <path id="Path_1540" data-name="Path 1540" d="M652.265,499.693a1.02,1.02,0,0,1-1.02-1.02v-1.936a1.02,1.02,0,0,1,2.041,0v1.936a1.02,1.02,0,0,1-1.02,1.02Z" transform="translate(16.582 8.725)" fill="url(#linear-gradient)"/>
    <path id="Path_1541" data-name="Path 1541" d="M652.27,549.836a1.021,1.021,0,0,1-1.02-1.02V502.558a1.02,1.02,0,1,1,2.041,0v46.257A1.02,1.02,0,0,1,652.27,549.836Z" transform="translate(16.584 10.824)" fill="url(#linear-gradient)"/>
    <path id="Path_1542" data-name="Path 1542" d="M652,518.891h8.163a13.6,13.6,0,0,0,13.6-13.6H665.6a13.605,13.605,0,0,0-13.6,13.6Z" transform="translate(16.854 12.175)" fill="#a3d4ff"/>
    <path id="Path_1543" data-name="Path 1543" d="M652,518.891h1.36a13.605,13.605,0,0,0,13.605-13.6H665.6a13.605,13.605,0,0,0-13.6,13.6Z" transform="translate(16.854 12.175)" fill="#fff"/>
    <path id="Path_1544" data-name="Path 1544" d="M660.433,520.182H652.27a1.021,1.021,0,0,1-1.02-1.02,14.642,14.642,0,0,1,14.625-14.625h8.163a1.02,1.02,0,0,1,1.02,1.02,14.642,14.642,0,0,1-14.625,14.625Zm-7.1-2.041h7.1a12.6,12.6,0,0,0,12.544-11.564h-7.1a12.6,12.6,0,0,0-12.542,11.564Z" transform="translate(16.584 11.905)" fill="url(#linear-gradient)"/>
    <path id="Path_1545" data-name="Path 1545" d="M652,533.892h10.884a13.605,13.605,0,0,0,13.6-13.6H665.6a13.605,13.605,0,0,0-13.6,13.6Z" transform="translate(16.854 17.583)" fill="#a3d4ff"/>
    <path id="Path_1546" data-name="Path 1546" d="M652,533.892h4.088a13.605,13.605,0,0,0,13.6-13.6H665.6a13.605,13.605,0,0,0-13.605,13.6Z" transform="translate(16.852 17.583)" fill="#fff"/>
    <path id="Path_1547" data-name="Path 1547" d="M663.154,535.183H652.27a1.021,1.021,0,0,1-1.02-1.02,14.642,14.642,0,0,1,14.625-14.625h10.884a1.02,1.02,0,0,1,1.02,1.02,14.642,14.642,0,0,1-14.626,14.625Zm-9.823-2.041h9.823A12.6,12.6,0,0,0,675.7,521.578h-9.823a12.6,12.6,0,0,0-12.542,11.564Z" transform="translate(16.584 17.313)" fill="url(#linear-gradient)"/>
    <path id="Path_1548" data-name="Path 1548" d="M647.605,526.892h10.884a13.605,13.605,0,0,0-13.605-13.6H634A13.605,13.605,0,0,0,647.605,526.892Z" transform="translate(10.365 15.06)" fill="#a3d4ff"/>
    <path id="Path_1549" data-name="Path 1549" d="M647.605,526.892h4.081a13.6,13.6,0,0,0-13.6-13.6H634A13.605,13.605,0,0,0,647.605,526.892Z" transform="translate(10.365 15.06)" fill="#fff"/>
    <path id="Path_1550" data-name="Path 1550" d="M658.759,528.183H647.875a14.642,14.642,0,0,1-14.625-14.625,1.02,1.02,0,0,1,1.02-1.02h10.884a14.642,14.642,0,0,1,14.625,14.625A1.02,1.02,0,0,1,658.759,528.183Zm-23.428-13.605a12.6,12.6,0,0,0,12.544,11.564H657.7a12.6,12.6,0,0,0-12.544-11.564Z" transform="translate(10.094 14.789)" fill="url(#linear-gradient)"/>
    <path id="Path_1551" data-name="Path 1551" d="M647.706,508.58h-5.442a1.02,1.02,0,1,1,0-2.041h5.442a1.02,1.02,0,1,1,0,2.041Z" transform="translate(12.976 12.627)" fill="url(#linear-gradient)"/>
    <path id="Path_1552" data-name="Path 1552" d="M644.264,512.022a1.02,1.02,0,0,1-1.02-1.02v-5.442a1.02,1.02,0,1,1,2.041,0V511A1.02,1.02,0,0,1,644.264,512.022Z" transform="translate(13.697 11.906)" fill="url(#linear-gradient)"/>
    <path id="Path_1553" data-name="Path 1553" d="M638.706,498.579h-5.442a1.02,1.02,0,1,1,0-2.041h5.442a1.02,1.02,0,1,1,0,2.041Z" transform="translate(9.732 9.022)" fill="url(#linear-gradient)"/>
    <path id="Path_1554" data-name="Path 1554" d="M635.264,502.021a1.02,1.02,0,0,1-1.02-1.02v-5.442a1.02,1.02,0,0,1,2.041,0V501A1.02,1.02,0,0,1,635.264,502.021Z" transform="translate(10.453 8.301)" fill="url(#linear-gradient)"/>
    <path id="Path_1555" data-name="Path 1555" d="M671.712,499.579H666.27a1.02,1.02,0,1,1,0-2.041h5.442a1.02,1.02,0,1,1,0,2.041Z" transform="translate(21.631 9.382)" fill="url(#linear-gradient)"/>
    <path id="Path_1556" data-name="Path 1556" d="M668.27,503.021a1.02,1.02,0,0,1-1.02-1.02v-5.442a1.02,1.02,0,0,1,2.041,0V502A1.02,1.02,0,0,1,668.27,503.021Z" transform="translate(22.352 8.661)" fill="url(#linear-gradient)"/>
    <path id="Path_1557" data-name="Path 1557" d="M667.712,480.577H662.27a1.02,1.02,0,1,1,0-2.041h5.442a1.02,1.02,0,1,1,0,2.041Z" transform="translate(20.189 2.532)" fill="url(#linear-gradient)"/>
    <path id="Path_1558" data-name="Path 1558" d="M664.27,484.019a1.02,1.02,0,0,1-1.02-1.02v-5.442a1.02,1.02,0,1,1,2.041,0V483a1.02,1.02,0,0,1-1.02,1.02Z" transform="translate(20.91 1.811)" fill="url(#linear-gradient)"/>
    <path id="Path_1559" data-name="Path 1559" d="M641.706,531.582h-5.442a1.02,1.02,0,0,1,0-2.041h5.442a1.02,1.02,0,0,1,0,2.041Z" transform="translate(10.813 20.919)" fill="url(#linear-gradient)"/>
    <path id="Path_1560" data-name="Path 1560" d="M638.264,535.024a1.02,1.02,0,0,1-1.02-1.02v-5.442a1.02,1.02,0,0,1,2.041,0V534A1.02,1.02,0,0,1,638.264,535.024Z" transform="translate(11.534 20.198)" fill="url(#linear-gradient)"/>
  </g>
</svg>
