<svg xmlns="http://www.w3.org/2000/svg" xmlns:xlink="http://www.w3.org/1999/xlink" width="89.27" height="89.273" viewBox="0 0 89.27 89.273">
  <defs>
    <linearGradient id="linear-gradient" y1="0.5" x2="1" y2="0.5" gradientUnits="objectBoundingBox">
      <stop offset="0" stop-color="#00d3a8"/>
      <stop offset="1" stop-color="#01c0cf"/>
    </linearGradient>
    <linearGradient id="linear-gradient-6" x1="0" y1="0.5" x2="1" y2="0.5" xlink:href="#linear-gradient"/>
  </defs>
  <g id="Group_330" data-name="Group 330" transform="translate(-552.5 -267.686)">
    <path id="Path_1150" data-name="Path 1150" d="M596.863,355.666h0a43.613,43.613,0,0,1-43.613-43.613h0a43.613,43.613,0,0,1,43.613-43.613h0a43.613,43.613,0,0,1,43.613,43.613h0A43.613,43.613,0,0,1,596.863,355.666Z" transform="translate(0.272 0.274)" fill="#fff"/>
    <path id="Path_1151" data-name="Path 1151" d="M614.515,271.989a43.414,43.414,0,0,1,8.661,26.09h0a43.613,43.613,0,0,1-43.613,43.613h0a43.42,43.42,0,0,1-19.958-4.84,43.551,43.551,0,0,0,34.952,17.527h0a43.613,43.613,0,0,0,43.613-43.613h0a43.6,43.6,0,0,0-23.661-38.781Z" transform="translate(2.579 1.56)" fill="#a3d4ff"/>
    <path id="Path_1152" data-name="Path 1152" d="M597.135,356.958a44.635,44.635,0,1,1,44.635-44.635h0A44.636,44.636,0,0,1,597.135,356.958Zm0-87.226a42.591,42.591,0,1,0,42.591,42.591,42.591,42.591,0,0,0-42.591-42.591Z" transform="translate(0 0.001)" fill="url(#linear-gradient)"/>
    <path id="Path_1153" data-name="Path 1153" d="M588.751,302.353a5.114,5.114,0,0,1-2.172,2.982l-7.7,4.946-12.2-5.569a4.666,4.666,0,0,0-6.181,2.313,4.611,4.611,0,0,0-.3.876,4.779,4.779,0,0,0,2.773,5.367l12.881,5.861a6.82,6.82,0,0,0,6.346-.372l12.479-7.552,6.738,12.844-8.983,12.257a4.808,4.808,0,0,0,.263,6.152,4.724,4.724,0,0,0,2.17,1.282,4.667,4.667,0,0,0,4.961-1.75l9.91-13.579a6.806,6.806,0,0,0,.568-7.1l-5.724-11.241a5.1,5.1,0,0,1-.384-3.628l.437-1.642-15.448-4.089Z" transform="translate(2.756 11.985)" fill="#fff"/>
    <path id="Path_1154" data-name="Path 1154" d="M601.406,320.533l-5.724-11.241a5.1,5.1,0,0,1-.384-3.628l.437-1.642-4.319-1.145-.627,2.438a5.1,5.1,0,0,0,.383,3.631l6.667,13.1a3.408,3.408,0,0,1-.285,3.556l-11.139,15.264a4.622,4.622,0,0,1-1.8,1.462,4.555,4.555,0,0,0,6.309-1.113l9.91-13.579a6.806,6.806,0,0,0,.572-7.1Z" transform="translate(11.655 12.771)" fill="#a3d4ff"/>
    <path id="Path_1155" data-name="Path 1155" d="M596.357,345.2a5.732,5.732,0,0,1-4.121-1.753,5.861,5.861,0,0,1-.354-7.469l8.607-11.743-5.938-11.312L583,319.912a7.827,7.827,0,0,1-7.3.428l-12.882-5.86a5.779,5.779,0,0,1-3.342-6.542,5.685,5.685,0,0,1,7.9-3.88l11.7,5.337,7.224-4.643a4.092,4.092,0,0,0,1.738-2.384l.436-1.635a1.018,1.018,0,0,1,1.244-.728h.005l15.449,4.1a1.014,1.014,0,0,1,.623.473,1.027,1.027,0,0,1,.1.778l-.437,1.635a4.075,4.075,0,0,0,.307,2.9l5.724,11.24a7.791,7.791,0,0,1-.653,8.165l-9.911,13.579a5.653,5.653,0,0,1-4.567,2.317Zm-1.407-34.741a.967.967,0,0,1,.273.038,1.011,1.011,0,0,1,.631.508l6.738,12.845a1.018,1.018,0,0,1-.08,1.079l-8.983,12.257a3.791,3.791,0,0,0,.173,4.836,3.705,3.705,0,0,0,1.7,1.006,3.626,3.626,0,0,0,3.873-1.363l9.91-13.577a5.756,5.756,0,0,0,.483-6.034l-5.724-11.24a6.118,6.118,0,0,1-.459-4.361l.173-.653-13.472-3.572-.174.656h0a6.122,6.122,0,0,1-2.607,3.578l-7.7,4.946a1.031,1.031,0,0,1-.976.068l-12.2-5.567a3.644,3.644,0,0,0-5.06,2.5,3.782,3.782,0,0,0,2.2,4.2l12.882,5.86a5.787,5.787,0,0,0,5.392-.315l12.479-7.553a1.016,1.016,0,0,1,.533-.136Z" transform="translate(2.484 11.716)" fill="url(#linear-gradient)"/>
    <path id="Path_1156" data-name="Path 1156" d="M634.583,294.66a4.15,4.15,0,0,0-4.788-2.753l-10.86,2.023a4.15,4.15,0,0,1-3.653-1.1l-6.382-6.2c-4.334-4.207-10.351-6.789-16.306-5.768-2.542.435-8.65,2.081-11.814,2.953a6.767,6.767,0,0,0-3.315,2.089l-7.553,8.676a4.149,4.149,0,0,0,.08,5.385,3.991,3.991,0,0,0,5.64.191,3.891,3.891,0,0,0,.406-.44l6.434-7.435a3.4,3.4,0,0,1,1.8-1.09l6.583-1.535-4.885,18.335,15.448,4.089,4.569-17.151,5.98,5.588a6.8,6.8,0,0,0,5.891,1.719l13.621-2.516a4,4,0,0,0,3.2-4.66C634.653,294.926,634.622,294.793,634.583,294.66Z" transform="translate(5.973 4.701)" fill="#fff"/>
    <path id="Path_1157" data-name="Path 1157" d="M627.523,293.092l-15.765,2.925a5.106,5.106,0,0,1-4.405-1.277l-6.705-6.228a4.315,4.315,0,0,0-7.106,2.044l-4.706,17.67,5.371,1.424,4.568-17.151,5.98,5.588a6.8,6.8,0,0,0,5.89,1.719l13.621-2.523A4,4,0,0,0,627.523,293.092Z" transform="translate(13.186 7.138)" fill="#a3d4ff"/>
    <path id="Path_1158" data-name="Path 1158" d="M601.7,313.384a1.068,1.068,0,0,1-.263-.034l-15.448-4.089a1.026,1.026,0,0,1-.727-1.251l4.447-16.69-4.926,1.148a2.36,2.36,0,0,0-1.259.76l-6.434,7.432a5.012,5.012,0,0,1-7.046.759,5.02,5.02,0,0,1-.651-7.2l7.582-8.713a7.791,7.791,0,0,1,3.816-2.4c3.347-.92,9.347-2.535,11.912-2.975,5.844-1,12.266,1.261,17.19,6.042l6.383,6.2a3.14,3.14,0,0,0,2.753.831l10.862-2.023a5.178,5.178,0,0,1,5.953,3.473h0a5.019,5.019,0,0,1-3.395,6.234c-.165.048-.331.089-.5.12l-13.629,2.53a7.851,7.851,0,0,1-6.774-1.978l-4.735-4.427-4.13,15.5a1.024,1.024,0,0,1-.981.754Zm-14.2-5.843,13.472,3.571,4.307-16.163a1.021,1.021,0,0,1,1.251-.725,1,1,0,0,1,.435.241l5.979,5.588a5.821,5.821,0,0,0,5.006,1.461l13.621-2.528a2.991,2.991,0,0,0,1.988-1.363,2.95,2.95,0,0,0,.319-2.4h0a3.115,3.115,0,0,0-3.624-2.044L619.392,295.2a5.18,5.18,0,0,1-4.552-1.372l-6.383-6.2c-4.461-4.331-10.222-6.384-15.421-5.5-2.57.443-9.048,2.2-11.714,2.934a5.727,5.727,0,0,0-2.816,1.772l-7.552,8.676a3.1,3.1,0,0,0,.052,4.011,2.969,2.969,0,0,0,4.5-.184l6.463-7.466a4.393,4.393,0,0,1,2.342-1.413l6.583-1.535a1.02,1.02,0,0,1,1.227,1.257Z" transform="translate(5.703 4.431)" fill="url(#linear-gradient)"/>
    <path id="Path_1159" data-name="Path 1159" d="M603.489,277.488a6.913,6.913,0,1,0-8.713,4.432h0A6.914,6.914,0,0,0,603.489,277.488Z" transform="translate(13.609 0.271)" fill="#fff"/>
    <path id="Path_1160" data-name="Path 1160" d="M601.713,274a6.805,6.805,0,0,1,2.084,1.131,6.9,6.9,0,1,0-11.106,5.655,6.836,6.836,0,0,1,.311-2.351,6.911,6.911,0,0,1,8.71-4.436Z" transform="translate(13.611 0.271)" fill="#a3d4ff"/>
    <path id="Path_1161" data-name="Path 1161" d="M597.2,283.558a7.937,7.937,0,1,1,7.537-5.484h0A7.946,7.946,0,0,1,597.2,283.558Zm0-13.829a5.891,5.891,0,1,0,1.817.289A5.89,5.89,0,0,0,597.2,269.729Z" transform="translate(13.337 0)" fill="url(#linear-gradient)"/>
    <path id="Rectangle_627" data-name="Rectangle 627" d="M569.156,287.19l14.369,8.3a2.727,2.727,0,0,1,1,3.724l-3.98,6.892a2.726,2.726,0,0,1-3.724,1l-14.369-8.3a2.725,2.725,0,0,1-1-3.723l3.98-6.892A2.724,2.724,0,0,1,569.156,287.19Z" transform="translate(3.117 6.945)" fill="#a3d4ff"/>
    <path id="Rectangle_628" data-name="Rectangle 628" d="M568.734,287.19l11.732,6.774-3.444,5.964a1.361,1.361,0,0,1-1.862.5l-12.912-7.455,2.763-4.784A2.724,2.724,0,0,1,568.734,287.19Z" transform="translate(3.538 6.945)" fill="#fff"/>
    <path id="Path_1162" data-name="Path 1162" d="M578.446,308.757a3.711,3.711,0,0,1-1.867-.5l-14.368-8.295a3.753,3.753,0,0,1-1.371-5.121l3.98-6.892a3.749,3.749,0,0,1,5.119-1.377l14.366,8.295a3.752,3.752,0,0,1,1.372,5.12l-3.981,6.894A3.749,3.749,0,0,1,578.446,308.757ZM568.067,288.12a1.7,1.7,0,0,0-1.477.852l-3.98,6.892a1.7,1.7,0,0,0,.624,2.328l14.366,8.295h0a1.708,1.708,0,0,0,2.328-.624l3.98-6.892a1.707,1.707,0,0,0-.624-2.328l-14.366-8.3a1.692,1.692,0,0,0-.85-.225Z" transform="translate(2.844 6.673)" fill="url(#linear-gradient)"/>
    <path id="Path_1163" data-name="Path 1163" d="M600.567,303.732H597.89a1.022,1.022,0,1,1,0-2.044h2.677a1.022,1.022,0,1,1,0,2.044Z" transform="translate(16.101 12.339)" fill="url(#linear-gradient-6)"/>
    <path id="Path_1164" data-name="Path 1164" d="M616.031,303.732H602.854a1.022,1.022,0,1,1,0-2.044h13.174a1.022,1.022,0,1,1,0,2.044Z" transform="translate(17.903 12.339)" fill="url(#linear-gradient-6)"/>
    <path id="Path_1165" data-name="Path 1165" d="M610.29,309.732h-10.4a1.022,1.022,0,1,1,0-2.044h10.4a1.022,1.022,0,1,1,0,2.044Z" transform="translate(16.828 14.517)" fill="url(#linear-gradient-6)"/>
    <path id="Path_1166" data-name="Path 1166" d="M612.29,315.733h-10.4a1.022,1.022,0,0,1,0-2.044h10.4a1.022,1.022,0,0,1,0,2.044Z" transform="translate(17.554 16.695)" fill="url(#linear-gradient-6)"/>
    <path id="Path_1167" data-name="Path 1167" d="M605.475,321.734h-3.583a1.022,1.022,0,0,1,0-2.044h3.583a1.022,1.022,0,1,1,0,2.044Z" transform="translate(17.554 18.873)" fill="url(#linear-gradient-6)"/>
  </g>
</svg>
