<svg xmlns="http://www.w3.org/2000/svg" xmlns:xlink="http://www.w3.org/1999/xlink" width="89.499" height="89.504" viewBox="0 0 89.499 89.504">
  <defs>
    <linearGradient id="linear-gradient" y1="0.5" x2="1" y2="0.5" gradientUnits="objectBoundingBox">
      <stop offset="0" stop-color="#00d3a8"/>
      <stop offset="1" stop-color="#01c0cf"/>
    </linearGradient>
    <linearGradient id="linear-gradient-3" x1="0" y1="0.5" x2="1" y2="0.5" xlink:href="#linear-gradient"/>
    <linearGradient id="linear-gradient-4" x1="0" y1="0.5" x2="1" y2="0.5" xlink:href="#linear-gradient"/>
    <linearGradient id="linear-gradient-11" x1="0" y1="0.5" x2="1" y2="0.5" xlink:href="#linear-gradient"/>
    <linearGradient id="linear-gradient-13" x1="0" y1="0.5" x2="1" y2="0.5" xlink:href="#linear-gradient"/>
    <linearGradient id="linear-gradient-16" x1="0" y1="0.5" x2="1" y2="0.5" xlink:href="#linear-gradient"/>
    <linearGradient id="linear-gradient-17" x1="0" y1="0.5" x2="1" y2="0.5" xlink:href="#linear-gradient"/>
  </defs>
  <g id="group_2" data-name="group 2" transform="translate(-730.897 -354.13)">
    <rect id="Rectangle_625" data-name="Rectangle 625" width="87.449" height="81.984" rx="10" transform="translate(731.922 360.626)" fill="#a3d4ff"/>
    <path id="Rectangle_626" data-name="Rectangle 626" d="M745.311,358.884H790.4a21.862,21.862,0,0,1,21.862,21.862V423.1a10.93,10.93,0,0,1-10.931,10.931H753.509a21.862,21.862,0,0,1-21.862-21.862V372.548A13.665,13.665,0,0,1,745.311,358.884Z" transform="translate(0.275 1.742)" fill="#fff"/>
    <path id="Path_1120" data-name="Path 1120" d="M805.707,442.167H745.586A14.7,14.7,0,0,1,730.9,427.478V372.823a14.706,14.706,0,0,1,14.689-14.689h60.121A14.7,14.7,0,0,1,820.4,372.823v54.656A14.7,14.7,0,0,1,805.707,442.167Zm-60.121-81.983a12.653,12.653,0,0,0-12.639,12.639v54.656a12.653,12.653,0,0,0,12.639,12.639h60.121a12.651,12.651,0,0,0,12.639-12.639V372.823a12.652,12.652,0,0,0-12.639-12.639Z" transform="translate(0 1.467)" fill="url(#linear-gradient)"/>
    <path id="Path_1121" data-name="Path 1121" d="M789.8,373.686l-44.726,25.825a4.077,4.077,0,0,0,4.069,7.066l-3.409,1.968a4.079,4.079,0,0,0,3.974,7.124c.036-.019.07-.04.1-.06a4.075,4.075,0,0,0,4.077,7.056h0l2.5-1.443a4.079,4.079,0,0,0,4.081,7.062l45.637-26.348Z" transform="translate(4.466 7.165)" fill="#a3d4ff"/>
    <path id="Path_1122" data-name="Path 1122" d="M788.609,373.686l-40.293,23.271a4.077,4.077,0,0,0,4.069,7.066l-3.409,1.968a4.079,4.079,0,1,0,3.974,7.124c.036-.019.07-.04.1-.06a4.075,4.075,0,1,0,4.077,7.056l2.382-1.366a3.964,3.964,0,0,0-1.41,5.425l.044.072a4.031,4.031,0,0,0,5.494,1.522l.031-.019,41.249-23.815Z" transform="translate(5.654 7.165)" fill="#fff"/>
    <path id="Path_1123" data-name="Path 1123" d="M758.729,430.122a5.1,5.1,0,0,1-5.056-5.849,5.1,5.1,0,0,1-6.234-6.862A5.1,5.1,0,0,1,745.39,408a5.1,5.1,0,0,1-.547-9.1l44.726-25.825a1.023,1.023,0,0,1,1.4.376l16.308,28.246a1.025,1.025,0,0,1-.374,1.4l-45.638,26.347A5.07,5.07,0,0,1,758.729,430.122Zm-1.539-7.745a3.054,3.054,0,0,0,3.058,5.287L805,401.831l-15.283-26.472-43.838,25.31a3.053,3.053,0,0,0,3.047,5.289,1.025,1.025,0,0,1,1.022,1.776h0l-3.406,1.965a3.054,3.054,0,0,0,3.016,5.313l.038-.023a1.026,1.026,0,0,1,1.023,1.776,3.05,3.05,0,0,0,3.053,5.281h0l2.5-1.447a1.026,1.026,0,1,1,1.026,1.776h0Z" transform="translate(4.176 6.888)" fill="url(#linear-gradient)"/>
    <path id="Path_1124" data-name="Path 1124" d="M751.266,411.962a1.024,1.024,0,0,1-.512-1.913l7.34-4.236a1.025,1.025,0,0,1,1.025,1.776l-7.34,4.236A1.006,1.006,0,0,1,751.266,411.962Z" transform="translate(7.086 18.886)" fill="url(#linear-gradient-3)"/>
    <path id="Path_1125" data-name="Path 1125" d="M748.282,406.167a1.025,1.025,0,0,1-.512-1.913l3.271-1.884a1.025,1.025,0,1,1,1.024,1.776l-3.271,1.887A1.017,1.017,0,0,1,748.282,406.167Z" transform="translate(5.994 17.625)" fill="url(#linear-gradient-4)"/>
    <path id="Path_1126" data-name="Path 1126" d="M799.345,401.153,754.391,375.2l-16.308,28.243,44.039,25.427a4.076,4.076,0,0,0,4.076-7.06h0l3.416,1.972a4.076,4.076,0,1,0,4.077-7.06,4.076,4.076,0,0,0,4.075-7.061l-2.506-1.448h0a4.076,4.076,0,1,0,4.178-7l-.1-.06Z" transform="translate(2.633 7.721)" fill="#a3d4ff"/>
    <path id="Path_1127" data-name="Path 1127" d="M794.681,398.463,754.4,375.2l-16.308,28.243,39.312,22.7a4.139,4.139,0,0,0,5.6-1.581,3.981,3.981,0,0,0-1.454-5.44l-.067-.038L784.8,421a4.234,4.234,0,0,0,5.7-1.529,4.059,4.059,0,0,0-1.592-5.518l-.012-.007a4.219,4.219,0,0,0,5.681-1.534,3.994,3.994,0,0,0-1.477-5.453l-.06-.034-2.485-1.436a4.134,4.134,0,0,0,5.594-1.586,3.92,3.92,0,0,0-1.357-5.377C794.754,398.5,794.718,398.483,794.681,398.463Z" transform="translate(2.635 7.721)" fill="#fff"/>
    <path id="Path_1128" data-name="Path 1128" d="M784.43,430.719a5.066,5.066,0,0,1-2.542-.683L737.85,404.608a1.024,1.024,0,0,1-.374-1.4l16.306-28.243a1.025,1.025,0,0,1,1.4-.376h0l44.954,25.951a5.094,5.094,0,0,1-.683,9.155,5.1,5.1,0,0,1-2.826,8.828,5.1,5.1,0,0,1-7.12,6.485,5.1,5.1,0,0,1-4.456,5.668,4.937,4.937,0,0,1-.619.036Zm-44.667-27.373,43.151,24.915a3.051,3.051,0,0,0,3.052-5.284h0a1.025,1.025,0,0,1,1.025-1.776c.036.021.071.041.105.063l3.311,1.913a3.052,3.052,0,1,0,3.118-5.248l-.066-.038a1.025,1.025,0,1,1,1.025-1.776,3.053,3.053,0,1,0,3.05-5.289l-2.506-1.446a1.026,1.026,0,0,1,1.027-1.776,3.05,3.05,0,1,0,3.05-5.284h0l-44.061-25.441Z" transform="translate(2.36 7.446)" fill="url(#linear-gradient)"/>
    <path id="Path_1129" data-name="Path 1129" d="M784.045,409.769a1,1,0,0,1-.511-.137L764.942,398.9a1.025,1.025,0,1,1,1.025-1.776l18.593,10.733a1.025,1.025,0,0,1-.514,1.913Z" transform="translate(12.286 15.702)" fill="url(#linear-gradient)"/>
    <path id="Path_1130" data-name="Path 1130" d="M777.641,412.965a1.019,1.019,0,0,1-.511-.137l-15.167-8.761a1.025,1.025,0,1,1,1.025-1.775l15.167,8.761a1.024,1.024,0,0,1-.514,1.912Z" transform="translate(11.195 17.596)" fill="url(#linear-gradient)"/>
    <path id="Path_1131" data-name="Path 1131" d="M784.52,403.153a1.019,1.019,0,0,1-.511-.137l-16.084-9.285a1.025,1.025,0,0,1,1.025-1.776l16.084,9.292a1.025,1.025,0,0,1-.514,1.913Z" transform="translate(13.379 13.809)" fill="url(#linear-gradient)"/>
    <path id="Path_1132" data-name="Path 1132" d="M785.673,374.049a9.811,9.811,0,0,1-5.746.717L773.338,373a9.037,9.037,0,0,0-6.852.9l-9.442,5.451a5.236,5.236,0,0,0-2.459,6.149,5.106,5.106,0,0,0,6.47,3.208,4.994,4.994,0,0,0,.926-.419l5.407-3.122a10.344,10.344,0,0,1,10.521-.6l9.658-7.242Z" transform="translate(8.591 6.802)" fill="#fff"/>
    <path id="Path_1133" data-name="Path 1133" d="M759.7,390.281a6.135,6.135,0,0,1-5.81-4.165,6.234,6.234,0,0,1,2.913-7.378l9.442-5.451a9.993,9.993,0,0,1,7.63-1.006l6.59,1.765a8.568,8.568,0,0,0,5.056-.661,1.024,1.024,0,0,1,1.312.422l1.9,3.279a1.025,1.025,0,1,1-1.776,1.025l-1.459-2.526a9.789,9.789,0,0,1-5.584.43l-6.559-1.759a7.951,7.951,0,0,0-6.075.8l-9.442,5.451a4.237,4.237,0,0,0-2,4.919,4.085,4.085,0,0,0,5.17,2.576,4.027,4.027,0,0,0,.746-.338l5.407-3.122a11.366,11.366,0,0,1,11.493-.626,1.025,1.025,0,0,1-.916,1.834,9.349,9.349,0,0,0-9.552.567l-5.407,3.122A6.123,6.123,0,0,1,759.7,390.281Z" transform="translate(8.315 6.524)" fill="url(#linear-gradient)"/>
    <path id="Path_1134" data-name="Path 1134" d="M757.972,377.4,733.839,363.46a13.6,13.6,0,0,0-2.192,7.414v34.608l7.585,4.372Z" transform="translate(0.275 3.418)" fill="#fff"/>
    <path id="Path_1135" data-name="Path 1135" d="M731.647,397.568l7.585,4.372,5.381-9.322-12.966-7.566Z" transform="translate(0.275 11.33)" fill="#a3d4ff"/>
    <path id="Path_1136" data-name="Path 1136" d="M739.505,411.155a1.019,1.019,0,0,1-.511-.137l-7.585-4.381a1.02,1.02,0,0,1-.512-.885V371.147a14.633,14.633,0,0,1,2.357-7.963,1.024,1.024,0,0,1,1.373-.331l24.132,13.937a1.024,1.024,0,0,1,.376,1.4l-18.741,32.453A1.017,1.017,0,0,1,739.505,411.155Zm-6.559-6,6.184,3.572,17.717-30.685-22.371-12.911a12.575,12.575,0,0,0-1.53,6.012Z" transform="translate(0 3.146)" fill="url(#linear-gradient)"/>
    <path id="Path_1137" data-name="Path 1137" d="M745.513,374.9a1.366,1.366,0,1,0,.5,1.866h0A1.366,1.366,0,0,0,745.513,374.9Z" transform="translate(4.604 7.543)" fill="url(#linear-gradient-11)"/>
    <path id="Path_1138" data-name="Path 1138" d="M799.092,362.124l-22.711,13.689,18.741,32.459,7.583-4.379V371.363A13.6,13.6,0,0,0,799.092,362.124Z" transform="translate(16.665 2.929)" fill="#fff"/>
    <path id="Path_1139" data-name="Path 1139" d="M802.706,371.363a13.6,13.6,0,0,0-3.614-9.237l-22.711,13.689,5.509,9.539,20.816-12.548Z" transform="translate(16.665 2.93)" fill="#a3d4ff"/>
    <path id="Path_1140" data-name="Path 1140" d="M795.4,409.569a1.017,1.017,0,0,1-.888-.512L775.769,376.6a1.025,1.025,0,0,1,.358-1.391l22.711-13.682a1.029,1.029,0,0,1,1.283.183,14.641,14.641,0,0,1,3.885,9.931V404.17a1.026,1.026,0,0,1-.512.888l-7.583,4.372A1.022,1.022,0,0,1,795.4,409.569Zm-17.353-33.127,17.725,30.7,6.184-3.57V371.636a12.581,12.581,0,0,0-2.8-7.913Z" transform="translate(16.39 2.656)" fill="url(#linear-gradient)"/>
    <path id="Path_1141" data-name="Path 1141" d="M792.464,387.879a1.366,1.366,0,1,0-.5,1.868,1.366,1.366,0,0,0,.5-1.868Z" transform="translate(21.624 12.115)" fill="url(#linear-gradient-13)"/>
    <path id="Path_1142" data-name="Path 1142" d="M782.708,372.644h-6.79l-8.241,9.565-8.2-9.565h-6.832V354.881h30.061Z" transform="translate(7.969 0.275)" fill="#a3d4ff"/>
    <path id="Path_1143" data-name="Path 1143" d="M762.009,375.6l-2.531-2.953h-6.832V354.881h27.209Z" transform="translate(7.969 0.275)" fill="#fff"/>
    <path id="Path_1144" data-name="Path 1144" d="M767.952,383.51a1.127,1.127,0,0,1-.777-.358l-7.894-9.208h-6.359a1.024,1.024,0,0,1-1.025-1.025V355.156a1.025,1.025,0,0,1,1.025-1.025h30.061a1.025,1.025,0,0,1,1.025,1.025v17.763a1.024,1.024,0,0,1-1.025,1.025h-6.32l-7.933,9.208A1.019,1.019,0,0,1,767.952,383.51ZM753.945,371.9h5.809a1.028,1.028,0,0,1,.777.358l7.421,8.659,7.462-8.662a1.029,1.029,0,0,1,.776-.357h5.765V356.181H753.944Z" transform="translate(7.694 0)" fill="url(#linear-gradient)"/>
    <path id="Path_1145" data-name="Path 1145" d="M764.179,370.33h0a1.018,1.018,0,0,1-.776-.358l-4.685-5.466a1.025,1.025,0,0,1,1.555-1.334l3.909,4.561,7.736-8.981a1.025,1.025,0,0,1,1.554,1.338h0l-8.515,9.884A1.016,1.016,0,0,1,764.179,370.33Z" transform="translate(10.111 1.563)" fill="url(#linear-gradient)"/>
    <path id="Path_1146" data-name="Path 1146" d="M791.925,356.18h-12a1.025,1.025,0,0,1,0-2.05h12a1.025,1.025,0,0,1,0,2.05Z" transform="translate(17.587 0)" fill="url(#linear-gradient-16)"/>
    <path id="Path_1147" data-name="Path 1147" d="M795.733,356.18h-3.025a1.025,1.025,0,0,1,0-2.05h3.025a1.025,1.025,0,0,1,0,2.05Z" transform="translate(22.271 0)" fill="url(#linear-gradient-17)"/>
    <path id="Path_1148" data-name="Path 1148" d="M744.919,356.18h-12a1.025,1.025,0,0,1,0-2.05h12a1.025,1.025,0,0,1,0,2.05Z" transform="translate(0.366 0)" fill="url(#linear-gradient-16)"/>
    <path id="Path_1149" data-name="Path 1149" d="M748.728,356.18H745.7a1.025,1.025,0,0,1,0-2.05h3.025a1.025,1.025,0,0,1,0,2.05Z" transform="translate(5.049 0)" fill="url(#linear-gradient-17)"/>
  </g>
</svg>
