<svg xmlns="http://www.w3.org/2000/svg" xmlns:xlink="http://www.w3.org/1999/xlink" width="89.498" height="89.508" viewBox="0 0 89.498 89.508">
  <defs>
    <linearGradient id="linear-gradient" y1="0.5" x2="1" y2="0.5" gradientUnits="objectBoundingBox">
      <stop offset="0" stop-color="#00d3a8"/>
      <stop offset="1" stop-color="#01c0cf"/>
    </linearGradient>
    <linearGradient id="linear-gradient-4" x1="0" y1="0.5" x2="1" y2="0.5" xlink:href="#linear-gradient"/>
    <linearGradient id="linear-gradient-11" x1="0" y1="0.5" x2="1" y2="0.5" xlink:href="#linear-gradient"/>
    <linearGradient id="linear-gradient-15" x1="0" y1="0.5" x2="1" y2="0.5" xlink:href="#linear-gradient"/>
    <linearGradient id="linear-gradient-16" x1="0" y1="0.5" x2="1" y2="0.5" xlink:href="#linear-gradient"/>
  </defs>
  <g id="Group_331" data-name="Group 331" transform="translate(-626.5 -349.686)">
    <rect id="Rectangle_659" data-name="Rectangle 659" width="43.724" height="60.117" transform="translate(669.883 350.713)" fill="#a3d4ff"/>
    <path id="Rectangle_660" data-name="Rectangle 660" d="M658.251,350.438h39.625V402.36a1.367,1.367,0,0,1-1.366,1.366H658.251Z" transform="translate(11.633 0.276)" fill="#fff"/>
    <path id="Path_1510" data-name="Path 1510" d="M702.25,411.856H658.526a1.025,1.025,0,0,1-1.025-1.025h0v-60.12a1.024,1.024,0,0,1,1.025-1.025H702.25a1.024,1.024,0,0,1,1.025,1.025v60.12a1.025,1.025,0,0,1-1.025,1.025Zm-42.7-2.05h41.674V351.736H659.551Z" transform="translate(11.358 0)" fill="url(#linear-gradient)"/>
    <path id="Path_1511" data-name="Path 1511" d="M697.052,423.064a1.028,1.028,0,0,1-1-.82l-5.3-26.508H667.832l-5.3,26.508a1.025,1.025,0,1,1-2.01-.4l5.465-27.327a1.023,1.023,0,0,1,1-.82h24.595a1.023,1.023,0,0,1,1.006.82l5.465,27.327a1.027,1.027,0,0,1-.8,1.209,1,1,0,0,1-.2.021Z" transform="translate(12.457 16.123)" fill="url(#linear-gradient)"/>
    <path id="Path_1512" data-name="Path 1512" d="M674.526,417.6a1.025,1.025,0,0,1-1.025-1.025V394.713a1.025,1.025,0,1,1,2.05,0h0v21.862A1.025,1.025,0,0,1,674.526,417.6Z" transform="translate(17.22 16.121)" fill="url(#linear-gradient)"/>
    <path id="Path_1513" data-name="Path 1513" d="M703.982,351.738H657.526a1.025,1.025,0,0,1,0-2.05h46.456a1.025,1.025,0,0,1,0,2.05Z" transform="translate(10.991 0.001)" fill="url(#linear-gradient-4)"/>
    <path id="Path_1514-2" data-name="Path 1514-2" d="M703.982,395.736H657.526a1.025,1.025,0,0,1,0-2.05h46.456a1.025,1.025,0,0,1,0,2.05Z" transform="translate(10.991 16.12)" fill="url(#linear-gradient-4)"/>
    <path id="Path_1515-2" data-name="Path 1515-2" d="M687.915,379.1l-13.664,6.832V372.271l13.664-6.832Z" transform="translate(17.494 5.771)" fill="#a3d4ff"/>
    <path id="Path_1516-2" data-name="Path 1516-2" d="M682.449,376.174l-8.2,4.1V371.64l8.954-4.479v7.788A1.37,1.37,0,0,1,682.449,376.174Z" transform="translate(17.494 6.402)" fill="#fff"/>
    <path id="Path_1517-2" data-name="Path 1517-2" d="M674.526,387.234a1.028,1.028,0,0,1-1.025-1.025V372.546a1.024,1.024,0,0,1,.567-.917l13.664-6.832a1.025,1.025,0,0,1,1.482.917v13.664a1.026,1.026,0,0,1-.566.917l-13.664,6.832A1.068,1.068,0,0,1,674.526,387.234Zm1.025-14.054v11.371l11.614-5.807V367.378Z" transform="translate(17.22 5.497)" fill="url(#linear-gradient)"/>
    <path id="Path_1518-2" data-name="Path 1518-2" d="M677.915,360.439l-13.664,6.832,13.664,6.832,13.664-6.832Z" transform="translate(13.831 3.94)" fill="#a3d4ff"/>
    <path id="Path_1519-2" data-name="Path 1519-2" d="M676.629,360.439l-8.869,4.434L676.018,369a1.372,1.372,0,0,0,1.23,0l8.258-4.129Z" transform="translate(15.116 3.94)" fill="#fff"/>
    <path id="Path_1520-2" data-name="Path 1520-2" d="M678.189,375.4a1.063,1.063,0,0,1-.458-.108l-13.664-6.832a1.025,1.025,0,0,1,0-1.834l13.664-6.832a1.021,1.021,0,0,1,.917,0l13.664,6.832a1.025,1.025,0,0,1,.456,1.377,1.038,1.038,0,0,1-.456.456l-13.664,6.832A1.069,1.069,0,0,1,678.189,375.4Zm-11.371-7.857,11.371,5.685,11.372-5.685-11.372-5.685Z" transform="translate(13.556 3.665)" fill="url(#linear-gradient)"/>
    <path id="Path_1521-2" data-name="Path 1521-2" d="M677.915,385.934V372.271l-13.664-6.832V379.1Z" transform="translate(13.831 5.771)" fill="#a3d4ff"/>
    <path id="Path_1522-2" data-name="Path 1522-2" d="M673.2,378.376v-8.461l-8.954-4.476V375l7.965,3.983a.683.683,0,0,0,.989-.611Z" transform="translate(13.831 5.771)" fill="#fff"/>
    <path id="Path_1523-2" data-name="Path 1523-2" d="M678.189,387.234a1.062,1.062,0,0,1-.458-.108l-13.664-6.832a1.026,1.026,0,0,1-.567-.917V365.714a1.026,1.026,0,0,1,1.484-.917l13.664,6.832a1.025,1.025,0,0,1,.566.917v13.664a1.027,1.027,0,0,1-1.025,1.025Zm-12.639-8.491,11.614,5.807V373.18l-11.614-5.807Z" transform="translate(13.556 5.497)" fill="url(#linear-gradient)"/>
    <path id="Path_1524-2" data-name="Path 1524-2" d="M685.174,357.733h-6.149a1.025,1.025,0,0,1,0-2.05h6.149a1.025,1.025,0,0,1,0,2.05Z" transform="translate(18.868 2.197)" fill="url(#linear-gradient-4)"/>
    <path id="Path_1525-2" data-name="Path 1525-2" d="M677.775,357.733H667.527a1.025,1.025,0,0,1,0-2.05h10.248a1.025,1.025,0,0,1,0,2.05Z" transform="translate(14.655 2.197)" fill="url(#linear-gradient-4)"/>
    <path id="Path_1526-2" data-name="Path 1526-2" d="M687.64,385.735H676.026a1.025,1.025,0,0,1,0-2.05H687.64a1.025,1.025,0,0,1,0,2.05Z" transform="translate(17.769 12.456)" fill="url(#linear-gradient-11)"/>
    <path id="Path_1527-2" data-name="Path 1527-2" d="M674.775,385.735H664.527a1.025,1.025,0,0,1,0-2.05h10.248a1.025,1.025,0,0,1,0,2.05Z" transform="translate(13.556 12.456)" fill="url(#linear-gradient-11)"/>
    <path id="Path_1528-2" data-name="Path 1528-2" d="M683.654,390.736H664.525a1.025,1.025,0,0,1,0-2.05h19.129a1.025,1.025,0,0,1,0,2.05Z" transform="translate(13.556 14.288)" fill="url(#linear-gradient-4)"/>
    <path id="Path_1529-2" data-name="Path 1529-2" d="M642.232,353.449a7.105,7.105,0,1,0,6.315,7.816,7.281,7.281,0,0,0,.04-.753A6.737,6.737,0,0,0,642.232,353.449Z" transform="translate(2.886 1.364)" fill="#fff"/>
    <path id="Path_1530-2" data-name="Path 1530-2" d="M645.075,366.5a7.7,7.7,0,0,0,.225-1.765,6.739,6.739,0,0,0-6.356-7.063,5.827,5.827,0,0,0-3.3,1.058,6.5,6.5,0,0,1,6.129-5.295,6.737,6.737,0,0,1,6.355,7.063A7.229,7.229,0,0,1,645.075,366.5Z" transform="translate(3.349 1.375)" fill="#a3d4ff"/>
    <path id="Path_1531-2" data-name="Path 1531-2" d="M642.5,368.871a8.121,8.121,0,1,1,7.344-8.828c.023.246.034.493.034.742A7.768,7.768,0,0,1,642.5,368.871Zm0-14.123a6.083,6.083,0,1,0,5.282,6.789,6.023,6.023,0,0,0,.047-.753A5.723,5.723,0,0,0,642.5,354.748Z" transform="translate(2.616 1.091)" fill="url(#linear-gradient)"/>
    <path id="Path_1532-2" data-name="Path 1532-2" d="M654.641,413.5l-3.484-3.2h-7.788l-.137,5.65h10.454a1.413,1.413,0,0,0,.956-2.453Z" transform="translate(6.13 22.208)" fill="#fff"/>
    <path id="Path_1533-2" data-name="Path 1533-2" d="M654.031,413.5l-3.484-3.2H644.9l4.821,4.423a.705.705,0,0,1,.049,1,.713.713,0,0,1-.526.232h3.835a1.413,1.413,0,0,0,.956-2.459Z" transform="translate(6.74 22.208)" fill="#a3d4ff"/>
    <path id="Path_1534-2" data-name="Path 1534-2" d="M653.961,417.254H643.506a1.026,1.026,0,0,1-1.025-1.027V416.2l.137-5.651a1.025,1.025,0,0,1,1.025-1h7.788a1.02,1.02,0,0,1,.693.273l3.484,3.2h0a2.439,2.439,0,0,1-1.648,4.236Zm-9.406-2.05h9.406a.388.388,0,0,0,.262-.674l-3.19-2.923h-6.392Z" transform="translate(5.855 21.933)" fill="url(#linear-gradient-15)"/>
    <path id="Path_1535-2" data-name="Path 1535-2" d="M629.756,415.953h10.455l-.137-5.65h-7.788l-3.484,3.2a1.413,1.413,0,0,0,.956,2.453Z" transform="translate(0.676 22.208)" fill="#fff"/>
    <path id="Path_1536-2" data-name="Path 1536-2" d="M638.067,410.3h-4.236l.137,5.65H638.2Z" transform="translate(2.686 22.208)" fill="#a3d4ff"/>
    <path id="Path_1537-2" data-name="Path 1537-2" d="M640.486,417.255H630.032a2.438,2.438,0,0,1-1.648-4.236l3.484-3.2a1.013,1.013,0,0,1,.693-.273h7.788a1.025,1.025,0,0,1,1.025,1l.137,5.651a1.024,1.024,0,0,1-1,1.048h-.025Zm-7.527-5.646-3.19,2.928a.387.387,0,0,0-.023.548.392.392,0,0,0,.286.126h9.4l-.085-3.6Z" transform="translate(0.4 21.932)" fill="url(#linear-gradient-16)"/>
    <path id="Path_1538-2" data-name="Path 1538-2" d="M655.551,418.737l-2.323-31.455H633.543l-2.323,31.455h7.788l4.372-24.97,4.372,24.972h7.8Z" transform="translate(1.729 13.774)" fill="#a3d4ff"/>
    <path id="Path_1539-2" data-name="Path 1539-2" d="M651,417.58l-1.913-25.889a1.413,1.413,0,0,0-1.409-1.309H633.231L631.22,417.6h7.788l4.372-24.972,4.372,24.972Z" transform="translate(1.729 14.91)" fill="#fff"/>
    <path id="Path_1540-2" data-name="Path 1540-2" d="M655.826,420.041h-7.788a1.028,1.028,0,0,1-1.01-.849l-3.361-19.206-3.363,19.2a1.027,1.027,0,0,1-1.008.849h-7.8a1.026,1.026,0,0,1-1.025-1.026c0-.022,0-.045,0-.067l2.323-31.455a1.023,1.023,0,0,1,1.022-.956h19.691a1.023,1.023,0,0,1,1.022.95l2.323,31.455a1.022,1.022,0,0,1-.948,1.09l-.074,0Zm-6.93-2.05h5.828l-2.167-29.406H634.774l-2.17,29.406h5.828l4.222-24.123a1.024,1.024,0,0,1,2.019,0Z" transform="translate(1.454 13.5)" fill="url(#linear-gradient)"/>
    <path id="Path_1541-2" data-name="Path 1541-2" d="M675.185,357.149a3.871,3.871,0,0,0-5.474,0l-12.672,12.672a8.014,8.014,0,0,1-5.665,2.347H635a7.741,7.741,0,0,0-7.742,7.742h0v20.658a3.871,3.871,0,0,0,7.742,0l.012-1.831H654.7V385.97a6.678,6.678,0,0,1,1.943-4.71l18.548-18.629a3.873,3.873,0,0,0,0-5.475Z" transform="translate(0.276 2.319)" fill="#fff"/>
    <path id="Path_1542-2" data-name="Path 1542-2" d="M668.964,357.147a3.854,3.854,0,0,0-3.859-.956,3.864,3.864,0,0,1-.379,5.012l-18.547,18.643a6.677,6.677,0,0,0-1.944,4.71v14.18h4.236V385.968a6.678,6.678,0,0,1,1.943-4.71l18.548-18.629a3.873,3.873,0,0,0,0-5.475Z" transform="translate(6.498 2.321)" fill="#a3d4ff"/>
    <path id="Path_1543-2" data-name="Path 1543-2" d="M631.4,405.729a4.9,4.9,0,0,1-4.9-4.9V380.174a8.775,8.775,0,0,1,8.767-8.767h16.384a6.942,6.942,0,0,0,4.941-2.05l12.67-12.673a5.009,5.009,0,0,1,6.923,0,4.893,4.893,0,0,1,0,6.921v0l-18.546,18.64a5.613,5.613,0,0,0-1.64,3.986V399a1.025,1.025,0,0,1-1.025,1.025H636.3v.809a4.9,4.9,0,0,1-4.9,4.894Zm3.876-32.272a6.723,6.723,0,0,0-6.717,6.717v20.659a2.846,2.846,0,1,0,5.692,0l.012-14.989a1.024,1.024,0,0,1,1.025-1.023h0a1.023,1.023,0,0,1,1.023,1.023h0v12.131h17.641V386.233a7.649,7.649,0,0,1,2.242-5.433l18.547-18.636a2.847,2.847,0,0,0-4.024-4.028h0l-12.67,12.674a8.974,8.974,0,0,1-6.389,2.645Z" transform="translate(0 2.055)" fill="url(#linear-gradient)"/>
    <path id="Path_1544-2" data-name="Path 1544-2" d="M640.4,395.706a1.025,1.025,0,0,1-1.025-1.025V368.112a1.025,1.025,0,1,1,2.049,0h0v26.569A1.025,1.025,0,0,1,640.4,395.706Z" transform="translate(4.717 6.375)" fill="url(#linear-gradient)"/>
  </g>
</svg>
