<svg xmlns="http://www.w3.org/2000/svg" width="16" height="13" viewBox="0 0 16 13">
  <path id="Path_6" data-name="Path 6" d="M1463.5,18.031a7.213,7.213,0,0,1-1.656,1.719,1.918,1.918,0,0,1,.031.406,9.27,9.27,0,0,1-1.094,4.344,8.925,8.925,0,0,1-3.156,3.531,9.457,9.457,0,0,1-10.125,0q.344.031.781.032a6.5,6.5,0,0,0,4.094-1.407,3.053,3.053,0,0,1-1.922-.64,3.261,3.261,0,0,1-1.14-1.61,5.925,5.925,0,0,0,.593.032,4.2,4.2,0,0,0,.875-.094,3.308,3.308,0,0,1-1.875-1.156,3.149,3.149,0,0,1-.75-2.063v-.062a3.1,3.1,0,0,0,1.469.437,3.63,3.63,0,0,1-1.062-1.187,3.18,3.18,0,0,1,.062-3.219,9.18,9.18,0,0,0,6.75,3.437,4.519,4.519,0,0,1-.062-.75,3.247,3.247,0,0,1,.437-1.64,3.206,3.206,0,0,1,1.188-1.2,3.253,3.253,0,0,1,2.953-.157,3.74,3.74,0,0,1,1.078.75,6.658,6.658,0,0,0,2.094-.781,3.261,3.261,0,0,1-1.438,1.813,7.07,7.07,0,0,0,1.875-.532Z" transform="translate(-1447.5 -16.5)" fill="#4b5981"/>
</svg>
